<svg width="200" height="36" viewBox="0 0 200 36" fill="none" xmlns="http://www.w3.org/2000/svg">
<path d="M54.8289 4.01752H62.9181V6.69955H57.6091V8.60739H62.0658V11.1097H57.6091V14.8009H54.8289V4.01752Z" fill="white"/>
<path d="M70.1272 4.01752V14.8009H67.333V4.01752H70.1272Z" fill="white"/>
<path d="M74.3464 4.01752H83.9306V6.69955H80.5356V14.8009H77.7414V6.69955H74.3464V4.01752Z" fill="white"/>
<path d="M88.1489 14.8009V4.01752H90.524L95.3859 10.0452V4.01752H98.1661V14.8009H95.805L90.9431 8.78711V14.8009H88.1489Z" fill="white"/>
<path d="M103.056 4.01752H111.425V6.69955H105.85V8.24794H110.433V10.7502H105.85V12.1327H111.425V14.8009H103.056V4.01752Z" fill="white"/>
<path d="M118.284 11.5659V11.635C118.284 11.7364 118.322 11.8452 118.396 11.9594C118.471 12.0747 118.582 12.1806 118.731 12.2774C118.88 12.3742 119.071 12.4553 119.304 12.5189C119.537 12.5834 119.812 12.6157 120.128 12.6157C120.65 12.6157 121.011 12.5447 121.211 12.4018C121.411 12.259 121.511 12.1097 121.511 11.9521C121.511 11.7217 121.366 11.5235 121.078 11.3576C120.789 11.1917 120.314 10.9982 119.653 10.777C119.215 10.6387 118.76 10.4756 118.291 10.2857C117.82 10.0968 117.389 9.86451 116.998 9.58802C116.607 9.31152 116.283 8.97511 116.027 8.5788C115.77 8.18248 115.643 7.70783 115.643 7.15483C115.643 6.6387 115.747 6.17603 115.958 5.76589C116.167 5.35575 116.461 5.00552 116.838 4.7152C117.215 4.42487 117.664 4.20183 118.186 4.04423C118.707 3.88755 119.28 3.8092 119.904 3.8092C120.528 3.8092 121.126 3.89031 121.671 4.05068C122.216 4.21197 122.686 4.44423 123.082 4.7493C123.478 5.05345 123.79 5.41935 124.018 5.84792C124.246 6.27649 124.36 6.75852 124.36 7.29216V7.44423H121.635V7.34746C121.635 7.21843 121.6 7.08479 121.531 6.94654C121.462 6.80829 121.356 6.68386 121.216 6.57326C121.077 6.46267 120.902 6.37326 120.693 6.30414C120.484 6.23502 120.238 6.20091 119.959 6.20091C119.484 6.20091 119.144 6.27649 118.939 6.42856C118.734 6.58064 118.632 6.7493 118.632 6.93363C118.632 7.14562 118.769 7.32534 119.044 7.47281C119.319 7.62027 119.782 7.8046 120.435 8.0258C120.807 8.15483 121.231 8.31428 121.706 8.5023C122.181 8.69124 122.627 8.93087 123.041 9.2212C123.455 9.51152 123.805 9.86636 124.089 10.2857C124.373 10.7051 124.514 11.2101 124.514 11.8C124.514 12.3253 124.405 12.788 124.186 13.1889C123.967 13.5899 123.664 13.9244 123.278 14.1917C122.891 14.459 122.435 14.6618 121.908 14.8C121.382 14.9383 120.807 15.0074 120.183 15.0074C119.558 15.0074 118.922 14.9336 118.36 14.7862C117.796 14.6387 117.307 14.4249 116.893 14.1429C116.478 13.8618 116.152 13.5134 115.915 13.0986C115.677 12.6839 115.558 12.2138 115.558 11.6885V11.5641H118.282L118.284 11.5659Z" fill="white"/>
<path d="M131.264 11.5659V11.635C131.264 11.7364 131.301 11.8452 131.375 11.9594C131.45 12.0747 131.562 12.1806 131.711 12.2774C131.86 12.3742 132.051 12.4553 132.283 12.5189C132.516 12.5834 132.791 12.6157 133.108 12.6157C133.629 12.6157 133.99 12.5447 134.19 12.4018C134.39 12.259 134.49 12.1097 134.49 11.9521C134.49 11.7217 134.346 11.5235 134.057 11.3576C133.768 11.1917 133.293 10.9982 132.632 10.777C132.194 10.6387 131.74 10.4756 131.27 10.2857C130.8 10.0968 130.368 9.86451 129.977 9.58802C129.586 9.31152 129.262 8.97511 129.006 8.5788C128.75 8.18248 128.622 7.70783 128.622 7.15483C128.622 6.6387 128.726 6.17603 128.937 5.76589C129.146 5.35575 129.44 5.00552 129.817 4.7152C130.194 4.42487 130.643 4.20183 131.165 4.04423C131.686 3.88755 132.259 3.8092 132.883 3.8092C133.507 3.8092 134.105 3.89031 134.65 4.05068C135.195 4.21197 135.665 4.44423 136.061 4.7493C136.457 5.05345 136.769 5.41935 136.997 5.84792C137.225 6.27649 137.339 6.75852 137.339 7.29216V7.44423H134.615V7.34746C134.615 7.21843 134.579 7.08479 134.51 6.94654C134.442 6.80829 134.335 6.68386 134.196 6.57326C134.056 6.46267 133.881 6.37326 133.672 6.30414C133.464 6.23502 133.218 6.20091 132.938 6.20091C132.463 6.20091 132.123 6.27649 131.918 6.42856C131.713 6.58064 131.611 6.7493 131.611 6.93363C131.611 7.14562 131.748 7.32534 132.024 7.47281C132.298 7.62027 132.761 7.8046 133.414 8.0258C133.787 8.15483 134.211 8.31428 134.686 8.5023C135.161 8.69124 135.606 8.93087 136.02 9.2212C136.435 9.51152 136.784 9.86636 137.068 10.2857C137.352 10.7051 137.494 11.2101 137.494 11.8C137.494 12.3253 137.384 12.788 137.165 13.1889C136.946 13.5899 136.643 13.9244 136.257 14.1917C135.87 14.459 135.414 14.6618 134.888 14.8C134.361 14.9383 133.786 15.0074 133.162 15.0074C132.538 15.0074 131.902 14.9336 131.339 14.7862C130.776 14.6387 130.287 14.4249 129.872 14.1429C129.458 13.8618 129.132 13.5134 128.894 13.0986C128.657 12.6839 128.537 12.2138 128.537 11.6885V11.5641H131.262L131.264 11.5659Z" fill="white"/>
<path d="M159.526 11.9115C159.284 12.3723 158.986 12.7917 158.632 13.1696C158.278 13.5474 157.877 13.8728 157.43 14.1447C156.983 14.4166 156.499 14.6286 155.977 14.7806C155.456 14.9327 154.916 15.0092 154.357 15.0092C153.574 15.0092 152.831 14.8617 152.128 14.5668C151.425 14.2719 150.81 13.871 150.284 13.364C149.757 12.8571 149.341 12.2654 149.033 11.588C148.725 10.9106 148.572 10.1843 148.572 9.41103C148.572 8.63776 148.725 7.91149 149.033 7.23407C149.34 6.55665 149.757 5.96494 150.284 5.45803C150.81 4.95112 151.425 4.55019 152.128 4.25526C152.831 3.96033 153.574 3.81287 154.357 3.81287C154.916 3.81287 155.454 3.88936 155.97 4.04144C156.487 4.19351 156.968 4.40365 157.416 4.67001C157.863 4.93729 158.264 5.25987 158.618 5.63775C158.972 6.01564 159.27 6.43038 159.512 6.882L156.969 8.01564C156.727 7.55481 156.375 7.1843 155.915 6.90227C155.454 6.62117 154.934 6.48107 154.358 6.48107C153.948 6.48107 153.563 6.55665 153.205 6.70872C152.846 6.8608 152.531 7.06817 152.262 7.33085C151.992 7.59352 151.78 7.90504 151.626 8.26357C151.472 8.62301 151.396 9.0055 151.396 9.41103C151.396 9.81656 151.473 10.1991 151.626 10.5585C151.78 10.9179 151.991 11.2285 152.262 11.4912C152.532 11.7539 152.846 11.9613 153.205 12.1133C153.563 12.2654 153.947 12.341 154.358 12.341C154.944 12.341 155.466 12.2009 155.922 11.9198C156.379 11.6387 156.728 11.2682 156.97 10.8064L159.527 11.9124L159.526 11.9115Z" fill="white"/>
<path d="M163.717 4.01752H166.498V12.1327H171.723V14.8009H163.717V4.01752Z" fill="white"/>
<path d="M185.819 4.01752V10.0867C185.819 10.7779 185.71 11.4231 185.491 12.0221C185.272 12.6212 184.95 13.142 184.527 13.5844C184.103 14.0268 183.578 14.3751 182.954 14.6286C182.33 14.8821 181.613 15.0083 180.803 15.0083C179.993 15.0083 179.261 14.8811 178.637 14.6286C178.013 14.3761 177.492 14.0277 177.073 13.5844C176.654 13.142 176.337 12.6212 176.123 12.0221C175.908 11.4231 175.801 10.7779 175.801 10.0867V4.01752H178.595V9.92075C178.595 10.7042 178.782 11.3032 179.154 11.718C179.527 12.1327 180.076 12.3401 180.803 12.3401C181.529 12.3401 182.096 12.1327 182.473 11.718C182.85 11.3032 183.038 10.7042 183.038 9.92075V4.01752H185.818H185.819Z" fill="white"/>
<path d="M190.556 4.01752H195.976C196.563 4.01752 197.077 4.09125 197.521 4.23872C197.963 4.38618 198.331 4.59356 198.624 4.86084C198.918 5.12812 199.139 5.44425 199.288 5.80738C199.437 6.17144 199.511 6.56591 199.511 6.98987C199.511 7.54287 199.392 8.0037 199.154 8.37236C198.917 8.74103 198.593 9.03596 198.184 9.25716C198.743 9.46914 199.185 9.78066 199.511 10.1899C199.837 10.6 200 11.1226 200 11.7585C200 12.2009 199.918 12.6092 199.756 12.9816C199.593 13.3549 199.357 13.6774 199.05 13.9493C198.743 14.2212 198.37 14.4314 197.932 14.5788C197.495 14.7263 197.001 14.8 196.451 14.8H190.556V4.01752ZM193.35 6.53365V8.24794H195.655C196.037 8.24794 196.304 8.1696 196.458 8.01292C196.612 7.85623 196.688 7.64886 196.688 7.3908C196.688 7.13273 196.615 6.92536 196.472 6.76867C196.328 6.61199 196.106 6.53365 195.809 6.53365H193.35ZM193.35 10.4046V12.2986H196.144C196.526 12.2986 196.793 12.2083 196.947 12.0286C197.101 11.8489 197.177 11.6166 197.177 11.3309C197.177 11.0452 197.101 10.8314 196.947 10.6608C196.793 10.4903 196.525 10.4046 196.144 10.4046H193.35Z" fill="white"/>
<path d="M54.8289 20.6074H62.9181V23.2895H57.6091V25.1973H62.0658V27.6996H57.6091V31.3909H54.8289V20.6074Z" fill="white"/>
<path d="M67.333 20.6074H75.7016V23.2895H70.1272V24.8378H74.7097V27.3402H70.1272V28.7226H75.7016V31.3909H67.333V20.6074Z" fill="white"/>
<path d="M80.2703 20.6074H83.0505V28.7226H88.2757V31.3909H80.2703V20.6074Z" fill="white"/>
<path d="M92.5088 20.6074H95.289V28.7226H100.514V31.3909H92.5088V20.6074Z" fill="white"/>
<path d="M104.747 20.6074H110.167C110.754 20.6074 111.268 20.6812 111.711 20.8286C112.153 20.9761 112.521 21.1835 112.814 21.4507C113.108 21.718 113.329 22.0342 113.478 22.3973C113.627 22.7613 113.701 23.1558 113.701 23.5798C113.701 24.1328 113.582 24.5936 113.345 24.9623C113.108 25.3309 112.784 25.6259 112.374 25.8471C112.933 26.0591 113.375 26.3706 113.701 26.7798C114.027 27.1899 114.19 27.7125 114.19 28.3485C114.19 28.7909 114.108 29.1992 113.946 29.5715C113.783 29.9448 113.547 30.2674 113.241 30.5392C112.934 30.8111 112.561 31.0213 112.123 31.1687C111.686 31.3162 111.192 31.3899 110.642 31.3899H104.747V20.6065V20.6074ZM107.541 23.1236V24.8378H109.846C110.228 24.8378 110.495 24.7595 110.649 24.6028C110.803 24.4461 110.879 24.2388 110.879 23.9807C110.879 23.7226 110.806 23.5153 110.663 23.3586C110.518 23.2019 110.297 23.1236 110 23.1236H107.541ZM107.541 26.9945V28.8885H110.335C110.717 28.8885 110.984 28.7982 111.138 28.6185C111.292 28.4388 111.368 28.2065 111.368 27.9208C111.368 27.6351 111.292 27.4213 111.138 27.2508C110.984 27.0803 110.716 26.9945 110.335 26.9945H107.541Z" fill="white"/>
<path d="M124.948 20.6074L129.349 31.3909H126.304L125.703 29.8148H121.414L120.813 31.3909H117.767L122.182 20.6074H124.948ZM123.565 24.1466L122.364 27.3125H124.753L123.565 24.1466Z" fill="white"/>
<path d="M143.139 28.5014C142.897 28.9622 142.599 29.3816 142.245 29.7595C141.891 30.1374 141.49 30.4627 141.043 30.7346C140.596 31.0065 140.112 31.2185 139.59 31.3705C139.069 31.5226 138.528 31.5991 137.969 31.5991C137.187 31.5991 136.444 31.4516 135.741 31.1567C135.037 30.8618 134.423 30.4609 133.896 29.9539C133.37 29.447 132.954 28.8553 132.646 28.1779C132.337 27.5005 132.185 26.7742 132.185 26.0009C132.185 25.2277 132.338 24.5014 132.646 23.824C132.953 23.1466 133.369 22.5548 133.896 22.0479C134.423 21.541 135.037 21.1401 135.741 20.8452C136.444 20.5502 137.187 20.4028 137.969 20.4028C138.528 20.4028 139.067 20.4793 139.583 20.6313C140.1 20.7834 140.581 20.9936 141.029 21.2599C141.476 21.5272 141.877 21.8498 142.231 22.2277C142.585 22.6055 142.883 23.0203 143.125 23.4719L140.582 24.6055C140.34 24.1447 139.988 23.7742 139.528 23.4922C139.067 23.2111 138.547 23.071 137.97 23.071C137.561 23.071 137.176 23.1466 136.817 23.2986C136.459 23.4507 136.144 23.6581 135.875 23.9208C135.605 24.1834 135.392 24.4949 135.239 24.8535C135.085 25.2129 135.009 25.5954 135.009 26.0009C135.009 26.4065 135.086 26.789 135.239 27.1484C135.392 27.5079 135.604 27.8185 135.875 28.0811C136.145 28.3438 136.459 28.5512 136.817 28.7032C137.176 28.8553 137.56 28.9309 137.97 28.9309C138.557 28.9309 139.079 28.7908 139.535 28.5097C139.992 28.2286 140.341 27.8581 140.583 27.3963L143.14 28.5023L143.139 28.5014Z" fill="white"/>
<path d="M157.347 20.6074V31.3909H154.553V27.3816H150.11V31.3909H147.33V20.6074H150.11V24.7964H154.553V20.6074H157.347Z" fill="white"/>
<path d="M2.78891 35.4093C2.25336 35.2784 2.10061 34.8139 1.85379 34.3964C1.56412 34.1107 1.62559 33.6609 1.30892 33.3881C0.885129 32.8674 0.160499 32.1798 0.685809 31.4941C0.938219 31.2259 1.07048 31.331 1.14965 30.8803C1.34431 30.0793 1.27725 29.2231 1.62466 28.4581C1.72525 28.1577 2.0736 28.1522 2.2664 27.9393C2.7442 27.4489 3.21549 26.9512 3.64953 26.4222C3.9336 25.8333 4.26052 26.5816 4.12547 26.9125C4.01091 27.2867 3.79762 27.601 3.52099 27.8747C3.42226 28.0111 3.30305 27.9033 3.40271 27.7789C3.48001 27.6028 4.16645 26.4185 3.62624 26.6683C3.21084 27.224 3.02549 27.9236 2.65665 28.5116C2.56817 28.7015 1.26607 30.8167 2.00374 30.4582C2.19375 30.3466 2.28502 30.5365 2.14531 30.6637C1.93854 30.8628 1.93854 31.1236 1.91992 31.3761C1.87521 31.9761 2.01399 32.5586 2.11644 33.1439C2.27478 33.6978 2.08384 34.3641 2.49645 34.8158C2.55886 34.9715 3.11025 35.3356 2.78891 35.4093ZM1.51755 31.7079C1.51755 31.637 1.52128 31.589 1.51662 31.542C1.51382 31.436 1.32289 31.4305 1.30799 31.531C1.30147 31.73 1.1245 32.0452 1.34152 32.1743C1.43931 32.2019 1.53711 32.1688 1.60417 32.0941C1.69824 31.9697 1.46353 31.8388 1.51755 31.7079Z" fill="white"/>
<path d="M14.7025 26.2572C14.0617 27.0554 13.1629 27.5779 12.5025 28.3614C12.3404 28.4673 12.5267 28.648 12.6785 28.5494C13.5168 28.0378 14.1874 27.3134 14.9949 26.7567C15.2064 26.5687 16.4749 25.6231 16.3026 25.4047C16.2253 25.3143 16.1089 25.3521 16.0195 25.4037C15.8323 25.4756 15.4653 25.7604 15.2892 25.6922C15.1607 25.319 16.1666 24.9872 16.0772 24.6581C15.9189 24.4471 15.5733 24.765 15.6916 24.3549C15.7335 24.2332 15.6162 24.0729 15.7279 23.9825C15.8863 23.9097 16.0213 24.0904 16.0707 24.2185C16.1387 24.3512 16.2393 24.3696 16.3194 24.2554C17.0934 23.1641 18.0332 22.1982 18.7755 21.083C19.2989 20.2858 19.6752 19.4111 20.1893 18.6074C20.2294 18.5245 20.302 18.4876 20.4008 18.5263C20.9848 18.7641 21.5399 19.06 22.1686 19.1761C22.9891 19.3908 21.7178 20.2913 21.4486 20.5033C20.1009 21.4941 19.2281 22.9844 18.2334 24.3005C18.0313 24.6102 17.7677 24.8452 17.4128 25.0028C16.7441 25.3964 16.1555 25.9706 15.6497 26.5577C15.2697 26.954 14.7034 27.1014 14.3569 27.5494C13.8577 28.0858 13.3063 28.5743 12.8406 29.142C12.3367 29.7696 11.8794 30.4489 11.2414 30.9485C10.8912 31.6111 11.4593 33.8572 11.7378 34.6185C11.762 34.7512 12.0629 35.0803 11.7509 35.0001C10.5335 34.4766 10.5969 32.8452 9.67197 32.0167C9.39069 31.6489 10.0371 31.1743 10.2588 30.8821C10.6434 30.5614 10.7347 30.0729 11.0197 29.6802C11.1492 29.5319 11.5161 28.7512 11.029 29.0065C10.4786 29.4194 10.1386 30.0443 9.68687 30.5521C9.46706 30.8222 9.12896 30.9918 9.20441 31.389C9.38696 32.565 8.86258 33.8674 9.67663 34.8655C9.27985 34.7715 9.09543 34.319 8.88028 34.0139C8.39595 33.2065 8.13795 32.2959 7.71044 31.4618C7.3919 30.7844 8.47139 30.8351 8.66419 30.366C9.42981 29.1687 10.0678 27.9024 10.73 26.6489C11.1091 25.966 11.3979 25.2176 12.0415 24.7254C12.3116 24.4636 12.6552 24.3687 12.9468 24.1641C13.6295 23.4102 14.2722 22.6323 14.5777 21.6369C14.9521 20.3272 15.184 18.9678 15.8658 17.7687C16.4162 16.648 15.9636 15.2056 17.1064 14.3752C17.5945 14.001 18.3433 14.0913 18.6106 13.4277C18.8705 12.7973 19.691 12.5549 19.7236 11.812C19.8345 11.5678 19.6883 11.012 20.0552 11.0083C20.3216 10.988 20.805 11.1143 20.873 10.7595C20.8702 10.6609 20.7715 10.6507 20.7026 10.6231C20.4548 10.5254 20.2266 10.3751 19.949 10.3567C19.8028 10.3493 19.8298 10.1622 19.9798 10.2185C20.181 10.2028 20.8059 10.2581 20.5573 9.91616C20.4408 9.76132 20.3253 9.62583 20.099 9.62123C20.0189 9.60648 19.6361 9.51155 19.6743 9.39357C19.6957 9.3392 19.7581 9.3392 19.8159 9.35302C20.0832 9.43136 20.6532 9.54381 20.615 9.1097C20.5675 8.81938 20.2378 8.90878 20.0208 8.89035C19.9276 8.88298 19.8056 8.87929 19.8019 8.75486C19.7991 8.49496 20.2955 8.80095 20.3393 8.39726C20.3365 8.2544 20.1651 8.10694 20.0012 8.10601C18.9171 8.2415 19.991 5.72813 18.5901 6.79818C18.0564 7.3991 17.1446 6.98343 16.6277 7.59726C16.4712 7.93551 15.4997 8.10509 15.6655 8.49035C15.9561 8.85164 16.2952 8.24979 16.6798 8.39726C16.1787 9.13643 15.0173 8.29772 13.9881 8.92076C12.89 9.4968 11.5934 10.2277 11.2498 11.4894C11.2069 11.9788 10.6518 12.1383 10.4767 12.5604C9.27985 14.3733 10.4432 14.9954 8.69959 15.0295C8.63253 15.0258 8.53566 15.0019 8.52635 15.1042C8.5189 15.1853 8.60645 15.1964 8.66885 15.2139C9.33946 15.4056 10.0008 15.6249 10.6602 15.8498C11.9194 16.4157 14.7453 16.7917 14.6764 18.5042C14.709 19.7235 13.975 20.8083 13.9201 22.024C13.758 22.4397 13.3463 21.5097 13.3463 21.3494C13.1712 20.9927 13.3249 19.4065 12.8732 19.4747C10.7235 19.5613 8.15565 19.4876 6.75389 17.6166C6.36643 17.1927 6.38413 18.0166 6.59183 18.2019C6.82933 18.5438 7.09944 18.8563 7.41425 19.1291C7.54558 19.2424 7.59308 19.3595 7.54093 19.5374C7.4068 19.9991 7.2941 20.4655 7.14042 20.9217C6.99978 21.3374 6.66634 21.6443 6.50428 22.0378C5.93146 23.2922 5.05967 24.4139 4.83986 25.801C4.68898 26.1881 4.13386 25.9853 4.21862 25.5982C4.2447 25.4646 4.28289 25.3328 4.32294 25.2019C4.45706 24.2775 2.59239 27.0185 2.27851 27.0093C1.87801 27.26 2.09782 26.4489 2.16861 26.3162C2.53092 25.6065 2.92397 24.8821 3.61228 24.4231C3.70076 24.354 3.7613 24.2729 3.76596 24.153C3.81067 23.0065 4.02489 21.8885 4.32759 20.7835C4.57255 19.8885 4.87433 19.0074 5.04291 18.0931C5.61945 16.4563 4.73648 16.4028 5.38101 15.2701C5.84205 14.5162 6.413 13.8775 7.16091 13.3899C8.22364 12.3549 7.34906 10.0738 7.60147 8.69956C7.62941 8.44519 7.54372 8.3779 7.28945 8.43505C6.74644 8.53367 6.64399 9.16132 6.13824 9.3309C5.22081 9.75855 4.41887 10.365 3.61321 10.9641C2.73303 11.6498 1.62187 12.1401 1.11892 13.1936C1.0295 13.4194 1.00063 13.4129 0.819938 13.2599C0.725866 13.1807 0.627138 13.1198 0.49581 13.1245C0.433406 13.1263 0.358894 13.1033 0.361689 13.0341C0.371003 12.8507 0.24992 12.8738 0.134427 12.8719C0.0906509 12.8719 0.0245215 12.9005 0.00496205 12.8461C-0.0201858 12.7751 0.0561891 12.7576 0.100896 12.7401C0.289039 12.6673 0.36914 12.5383 0.40267 12.3374C0.56194 11.8406 1.23255 11.7521 1.65447 11.5484C2.69019 11.224 2.90348 10.0175 3.76875 9.45533C4.28102 9.12998 4.72437 8.68666 5.28694 8.44519C5.37356 8.4074 5.41174 8.31984 5.45552 8.24058C5.79827 7.518 6.45212 7.16869 7.11714 6.78528C7.37234 6.5438 7.75701 6.62399 8.01221 6.39357C8.43228 6.07652 8.91847 5.87744 9.38789 5.64887C9.72599 5.55117 10.1293 5.76684 10.4283 5.48942C10.9955 5.03228 10.4227 4.80094 10.3985 4.36223C10.2988 2.81937 10.8968 0.875587 12.8555 1.62674C14.2442 1.98158 13.1778 2.30877 12.4867 2.5825C12.1085 2.74287 11.9269 3.14748 11.531 3.29495C11.4519 3.33458 11.4146 3.41568 11.3876 3.49495C11.315 3.71062 11.2526 3.76407 11.0374 3.71891C10.6211 3.63135 10.6909 3.69218 10.608 4.00923C10.6034 4.14011 10.4255 4.565 10.6676 4.54656C10.9098 4.44794 11.545 4.61384 11.5255 4.22029C11.4342 3.90232 12.0452 4.08942 12.3479 3.5696C12.5267 3.38343 12.6441 3.10601 12.9151 3.04057C13.2504 2.86269 13.5578 2.6249 13.6248 3.16499C13.6118 3.45255 13.7478 3.8802 13.4581 4.06914C13.2346 4.2037 13.0213 4.34011 12.9729 4.63688C12.7568 5.24057 12.0107 4.53366 12.0135 5.84795C12.0275 6.31246 12.8564 6.04518 13.0958 6.55855C13.2458 6.96039 14.6913 6.64795 14.3159 7.14933C13.6025 8.11615 12.6189 8.8756 11.4649 9.26086C10.9247 9.44888 10.3556 9.52076 9.88619 9.86547C9.5453 10.0618 10.0557 10.248 9.99517 10.4922C9.98492 10.5392 9.9961 10.5982 10.0529 10.6083C10.2094 10.6369 10.1675 10.7051 10.1032 10.7917C9.97188 10.9475 10.0641 11.1162 10.2737 11.0268C10.4003 10.9945 10.5112 11.0507 10.6164 11.1051C11.0812 11.3549 11.6894 10.6 11.355 10.1982C11.1753 9.95947 11.2255 9.81754 11.5143 9.71431C12.0545 9.49957 12.7912 9.64703 13.1712 9.13367C13.4488 8.75855 13.7832 8.46454 14.2321 8.30141C14.4212 8.23228 14.5693 8.09311 14.6745 7.918C14.9158 7.46454 15.4504 7.3309 15.8043 6.97145C16.5774 6.36776 17.4082 5.8673 18.3601 5.58712C18.5454 5.53274 18.6926 5.41937 18.8332 5.29679C19.3725 4.83412 20.8609 4.10785 21.403 4.79818C21.6377 5.14011 21.8566 5.4885 21.864 5.92168C21.8091 6.26638 22.2468 6.20924 22.2207 5.91615C22.2366 5.5908 22.0708 5.31154 21.946 5.0249C21.8612 4.45163 22.3316 4.94656 22.5793 4.01661C22.6529 3.73642 22.2114 3.65255 22.0289 3.53366C21.8994 3.47006 21.851 3.39449 21.8929 3.23504C22.1257 2.16223 22.4676 0.801854 23.8451 0.890334C24.0994 0.907845 24.4701 0.866371 24.647 1.05808C24.6563 1.11245 24.5911 1.12997 24.553 1.15577C24.3909 1.26453 24.2586 1.40278 24.1348 1.55116C23.8265 2.05439 23.2537 1.97881 23.2481 2.39448C23.2229 3.00462 22.258 2.42766 22.1835 3.00278C22.027 4.00923 22.9267 2.99909 23.1689 4.22306C23.2611 4.36039 23.262 4.68573 23.4623 4.69587C23.5564 4.67375 23.5731 4.57421 23.5601 4.50601C23.602 3.85992 23.0432 3.54379 23.4576 3.012C23.7594 2.61568 24.1022 2.25623 24.5846 2.06361C24.6936 2.02029 24.7802 1.95024 24.8445 1.84978C24.9134 1.74195 25.0131 1.72167 25.1258 1.78158C25.245 1.84241 25.2226 2.02121 25.0755 2.00646C24.7951 1.96499 24.9963 2.37144 25.2655 2.25531C25.571 2.17697 25.8495 2.74472 25.4285 2.75854C24.9022 2.79541 24.9581 3.46638 25.4741 3.44057C26.3562 3.42398 27.0333 3.65808 27.3863 2.63872C27.6443 2.11153 28.3205 2.13181 28.8048 1.92812C29.02 1.80923 29.3459 1.96038 29.4782 1.71522C29.5173 1.63964 29.5713 1.58619 29.6654 1.62398C29.8172 1.68388 29.9812 1.7355 30.0063 1.92905C30.0063 2.17236 29.5564 2.07006 29.6691 2.49218C29.8927 3.19172 29.1625 2.81292 28.8234 3.13366C28.2245 3.94656 30.8287 3.22859 30.1926 4.14933C29.7166 4.61108 28.8737 4.80463 28.7135 5.5226C28.6949 5.63228 28.6297 5.65163 28.5291 5.60186C27.2438 4.44518 27.092 5.76776 26.3673 4.8885C26.2118 4.62029 25.978 4.53089 25.6837 4.55301C25.4043 4.57421 25.1202 4.5014 24.8445 4.61937C24.715 4.67467 24.6517 4.56039 24.593 4.46822C24.3592 3.99725 23.9084 4.50785 24.4933 5.15854C24.8603 5.54841 25.3214 4.80463 25.7796 5.25993C26.3915 5.68942 27.2075 5.54564 27.893 5.79726C28.8933 6.27007 28.6372 6.47928 29.3683 5.43504C29.6105 5.01292 30.1255 4.85716 30.5521 4.66546C31.2413 4.37145 32.3357 3.68389 32.075 2.82121C31.9986 2.62306 32.0852 2.40831 32.1802 2.22213C32.4801 1.93826 32.8312 2.5567 33.0706 1.82121C33.2597 1.46545 33.9694 2.11799 33.5419 2.5567C32.6943 3.45439 32.1793 4.58711 31.3689 5.50417C31.2665 5.5991 31.1585 5.69311 31.0243 5.7309C30.5409 5.86546 30.1535 6.15486 29.7735 6.46177C29.4521 6.72168 29.0991 6.94657 28.6819 6.97975C28.1128 7.02491 27.5362 7.04795 26.9923 6.80832C26.8004 6.72352 26.6095 6.64242 26.3925 6.62583C26.1233 6.58896 25.815 6.13827 25.6446 6.57422C25.571 6.78159 25.5207 6.99265 25.2627 7.0415C24.7364 7.26177 24.3136 7.78989 23.6802 7.51339C23.1633 7.37606 23.3831 7.92261 23.7473 7.89403C24.4915 8.03505 23.7035 8.50325 23.6234 8.86823C23.5769 8.97791 23.6942 9.06362 23.779 8.9945C23.9811 8.95671 25.1379 7.40555 25.1342 7.93274C24.3983 9.72629 23.1633 11.2867 22.4797 13.1143C22.4396 13.5429 21.5045 14.1752 22.1537 14.4166C24.063 15.2913 26.2341 15.7678 27.824 17.1945C28.4751 17.7042 27.594 17.8673 27.756 18.3235C28.3903 18.6286 28.7377 17.4968 28.4099 17.0305C28.0615 16.4148 27.3816 16.1466 26.7958 15.8046C26.4949 15.6802 26.2593 15.3788 25.9389 15.3235C25.7209 15.3162 25.5533 15.212 25.3838 15.0931C24.6368 14.5825 23.7622 14.3134 22.9007 14.0627C22.3856 13.9798 23.4418 12.2046 23.7911 12.1291C24.2801 11.7447 24.267 11.0286 24.3974 10.4728C24.5241 9.70233 24.9237 9.0627 25.3726 8.44426C25.5291 7.99449 25.8076 7.60648 26.0236 7.18712C26.1186 6.9521 26.3617 7.04334 26.5247 7.14841C27.2903 7.64518 28.2758 7.42399 29.1401 7.57514C29.4838 7.60555 29.6338 7.23873 29.8731 7.05901C30.0156 6.86454 30.2652 6.98343 30.0929 7.22122C29.9383 7.54749 29.617 7.64518 29.3096 7.73827C28.8458 7.86085 28.4406 8.14288 28.0392 8.39634C27.5884 8.6756 28.3996 8.84795 28.6232 8.69588C28.8272 8.63044 29.006 8.52445 29.1643 8.38067C29.2174 8.33182 29.2826 8.25072 29.3664 8.31062C29.4531 8.3733 29.3841 8.45717 29.3562 8.52168C29.1215 9.12353 28.6623 9.59173 28.3689 10.1632C27.5921 11.2148 27.5772 10.4 27.2056 9.74473C27.0854 9.57514 26.8721 9.69312 26.9644 9.88482C27.6415 11.2627 26.8768 12.5586 26.2556 13.7908C26.1419 14.0369 26.2556 14.2231 26.5331 14.2406C27.1152 14.2784 27.6983 14.3125 28.2804 14.3503C29.6766 14.553 31.0672 14.9116 32.2556 15.683C32.6329 16.0203 33.4748 15.9733 33.6164 16.4563C33.7776 16.883 33.8679 17.3752 34.1967 17.7116C34.9353 18.2839 35.2892 19.1392 35.8406 19.8572C36.8307 21.0378 37.2573 22.7236 38.7857 23.3945C39.1424 23.577 39.5588 23.7226 39.8354 24.0157C40.0589 24.3199 40.4063 24.448 40.6988 24.6526C40.913 24.7991 41.28 24.6968 41.4402 24.9014C41.4281 24.9586 41.3554 24.9632 41.307 24.9696C40.8329 24.9641 40.3495 25.0259 39.8922 24.8581C38.903 24.3687 37.003 25.3189 37.0458 23.6397C36.8409 22.6452 35.9002 21.9945 35.2724 21.2535C34.8459 21.06 34.6177 20.6268 34.2144 20.4037C34.0374 20.306 33.9815 20.1595 34.0532 19.9659C34.1399 19.8535 34.1455 19.3291 34.3727 19.5825C35.1672 20.3189 35.7475 21.2341 36.3128 22.1549C36.4376 22.3742 36.6118 22.5457 36.8279 22.6729C36.9015 22.7162 36.9927 22.789 37.0728 22.7051C37.1502 22.624 37.0598 22.5521 37.0198 22.483C36.5708 21.7042 36.0064 21 35.5491 20.2268C34.7816 19.3254 34.1427 18.3199 33.6472 17.2443C33.4665 16.7392 32.5611 16.9945 32.6655 16.2461C32.7102 15.9097 32.2193 15.9033 32.2687 16.2563C32.2184 16.7964 32.5667 17.2056 32.944 17.507C33.4218 17.6074 33.5699 17.9733 33.6425 18.3816C33.6723 18.6047 33.8744 20.0185 33.568 19.8415C32.6608 19.5097 32.1523 18.6535 31.844 17.7954C31.5953 16.9014 29.536 18.353 28.8784 18.3309C28.3615 18.3521 29.4577 20.1899 29.5024 20.5706C29.5415 20.9217 29.2295 20.4821 29.1895 20.377C28.9445 19.8415 28.5012 19.4231 28.2963 18.8682C28.2711 18.8047 28.2385 18.7401 28.1565 18.7567C27.8725 19.2987 29.2938 21.3991 29.6049 22.012C29.9169 22.6572 30.3742 23.2056 30.7263 23.8259C30.7561 23.8941 30.8259 23.9567 30.9182 23.9171C31.11 23.8194 30.9135 23.6507 31.0076 23.5613C31.0579 23.5374 31.1082 23.5871 31.1463 23.6222C31.6418 24.1411 31.925 24.8194 32.5909 25.1789C33.0119 25.4332 33.3957 25.7494 33.7841 26.0526C34.1007 26.3005 34.4454 26.4572 34.8524 26.4793C35.0191 26.4885 35.183 26.5319 35.3349 26.6074C35.3982 26.6397 35.482 26.6784 35.4559 26.7623C35.4317 26.8388 35.346 26.8111 35.2836 26.8056C34.478 26.7319 33.6658 26.695 32.9067 26.3696C32.3767 26.1954 31.7983 26.3872 31.2674 26.1835C31.1473 26.1494 31.07 26.0738 31.0448 25.9512C30.7906 24.7134 30.0696 23.7632 29.1401 22.9448C28.7843 22.6314 28.4276 22.3162 28.0373 22.0434C27.7896 21.6526 28.4919 20.5245 28.1053 19.9023C28.0001 19.5457 27.5921 19.6268 27.4533 19.307C27.4263 19.2646 27.4049 19.1936 27.3434 19.2176C27.2186 19.3945 27.4058 19.6821 27.4664 19.8719C27.6564 20.1365 28.1705 21.9494 27.5558 21.6111C26.7641 21.0203 26.4363 20.0351 26.1075 19.1466C25.9817 18.7549 25.9193 18.7374 25.5067 18.7844C25.0475 18.836 24.5828 18.8369 24.1189 18.847C23.0106 18.8719 22.0326 18.4397 21.0388 18.0553C20.7929 17.9604 20.6597 17.7254 20.7407 17.4996C20.8488 16.9282 20.9261 16.353 21.063 15.7881C21.1142 15.53 20.9708 15.4747 20.8106 15.6765C20.6206 15.8765 20.5023 16.1208 20.425 16.3779C19.6724 18.6139 18.3629 20.6498 16.7702 22.389C16.7301 22.4314 16.6798 22.4839 16.6733 22.5365C16.6323 22.8858 16.2905 23.0526 16.1759 23.3577C16.1061 23.5162 15.8518 23.4609 15.7093 23.459C15.3265 23.3512 14.8133 23.8139 15.075 24.1623C15.1905 24.3079 15.1365 24.3853 15.007 24.4756C13.0809 25.7355 11.6829 27.5503 10.0939 29.1494C9.90668 29.3346 9.66079 29.6425 9.78281 29.9079C9.83217 29.93 9.87688 29.8904 9.9132 29.8637C10.1814 29.5641 10.4227 29.2415 10.7822 29.0369C11.7537 27.9088 12.8667 26.9217 13.989 25.9401C14.0402 25.8867 14.1185 25.8028 14.1846 25.8563C14.2805 26.1355 13.3026 26.7872 13.08 26.9872C12.9691 27.0719 12.8685 27.1632 12.7931 27.2821C12.5435 27.6544 12.0638 27.813 11.885 28.2415C11.8542 28.3143 11.817 28.3927 11.8813 28.4581C11.9483 28.5273 12.0117 28.4581 12.0768 28.4332C13.1107 27.9116 13.6323 26.7392 14.6997 26.26L14.7025 26.2572ZM26.7604 3.80462C26.7688 3.9991 27.1022 5.25255 27.3416 4.7143C27.4412 4.38435 26.9122 3.97698 27.3826 3.79633C27.6275 3.69587 27.9107 3.7825 28.0085 4.02029C28.0755 4.18343 28.178 4.19357 28.3037 4.14472C28.7005 3.98527 29.1159 4.00739 29.5322 4.01015C29.5862 4.01015 29.6272 3.99817 29.6291 3.93274C29.5928 3.65808 28.8383 3.85255 28.6092 3.79356C28.1351 3.83504 28.1044 3.28389 27.9619 2.96038C27.9405 2.89863 27.9805 2.79541 27.8743 2.79633C27.7654 2.79817 27.784 2.89863 27.7747 2.97329C27.7486 3.47651 26.711 3.35301 26.7594 3.80462H26.7604ZM11.6866 26.4019C12.3218 26.3466 12.7242 25.8517 13.1545 25.4425C13.4302 25.2249 13.4833 24.8673 13.7012 24.6139C13.7385 24.5042 13.7012 24.3715 13.5801 24.3346C13.3342 24.2913 13.2886 24.7162 13.1191 24.848C12.7661 25.2978 12.2995 25.6176 11.8365 25.9411C11.6698 26.0166 11.2833 26.4047 11.6866 26.4019ZM3.47629 10.6876C4.30151 10.4194 4.61819 9.45348 5.24316 8.91339C5.43689 8.64426 4.90786 8.67744 4.81937 8.84427C4.63589 9.05256 2.78054 10.6175 3.47536 10.6876H3.47629ZM10.962 6.2415C11.1771 6.27191 11.219 6.17053 11.0868 6.00924C10.7952 5.66269 10.2671 5.70785 9.85359 5.69679C9.65707 5.71615 8.65861 6.3779 8.82626 6.58067C8.90543 6.68205 9.04514 6.64979 9.16063 6.60555C9.69991 6.27928 10.3398 6.10601 10.962 6.2415ZM10.3966 8.56869C10.6695 8.56132 11.097 8.59357 11.2023 8.30141C11.1957 8.22399 11.1343 8.25164 11.0924 8.24519C10.4869 8.18896 9.92997 7.96592 9.39628 7.69311C9.21465 7.64611 8.83837 7.35025 8.68934 7.48942C8.64091 7.6074 8.78248 7.69219 8.86817 7.74565C9.4801 8.12445 9.51829 8.65625 10.3957 8.56869H10.3966ZM6.54153 8.45901C7.34254 8.45993 7.60426 7.70048 8.19849 7.34749C8.25158 7.31523 8.33075 7.26915 8.28791 7.19541C8.25251 7.13458 8.1808 7.1779 8.12491 7.1991C7.52509 7.42952 6.93738 7.68482 6.39717 8.03413C5.97617 8.20279 6.19039 8.43505 6.54153 8.45809V8.45901ZM21.8519 7.6332C22.4471 7.67468 22.6576 7.16592 21.9245 7.30786C21.4691 7.24334 21.009 7.19081 20.6131 6.91984C20.4958 6.80647 20.0133 6.71246 20.1502 7.00279C20.4362 7.73643 21.2679 7.55025 21.851 7.6332H21.8519ZM19.6808 13.7318C18.9161 13.7042 19.5877 14.3014 19.9109 14.4166C20.249 14.5171 20.3849 15.1106 20.7044 15.1162C21.0956 14.7503 20.4213 14.4194 20.2769 14.1125C20.1502 13.8369 19.9118 13.7558 19.6808 13.7318ZM23.5769 4.9438C23.2471 4.96131 22.53 5.56592 22.842 5.90325C23.1363 5.90785 23.1857 5.34103 23.7901 5.40555C24.2139 5.38251 23.873 4.86453 23.5778 4.9438H23.5769ZM16.745 24.7236C16.6975 24.9632 17.0319 25.0987 17.1241 24.9033C17.2051 24.5042 17.8646 24.5143 17.8087 24.2729C17.5758 23.9365 16.8 24.4019 16.745 24.7226V24.7236ZM20.2471 13.0544C19.8522 13.0885 20.2806 13.6046 20.479 13.6544C20.6541 13.718 20.7603 13.8277 20.819 13.9954C20.8693 14.0876 20.9 14.2563 21.0323 14.2498C21.4924 13.9106 20.602 13.5162 20.4976 13.1724C20.4483 13.0793 20.33 13.0673 20.2462 13.0544H20.2471ZM8.25717 31.2637C8.21433 31.5531 8.51238 31.8839 8.78528 31.7595C9.08332 31.5706 8.80949 31.2342 8.66326 31.0231C8.5189 30.7761 8.22178 31.071 8.25717 31.2637ZM6.19505 16.389C6.15593 16.554 6.30682 16.5816 6.40182 16.4618C6.61791 16.2507 6.5909 15.8701 6.89733 15.7447C6.95694 15.7208 7.06125 15.7125 7.02586 15.6102C6.73713 15.2894 6.1727 16.0701 6.19412 16.3881L6.19505 16.389ZM24.6098 3.61753C23.7566 3.54195 24.5576 4.18343 24.9618 3.97605C25.0503 3.94748 25.1397 3.91246 25.1276 3.79817C25.095 3.5484 24.7886 3.62674 24.6098 3.61753Z" fill="white"/>
<path d="M33.8101 6.34379C33.2419 6.37882 32.6207 6.24978 32.0115 6.05255C31.7703 5.97513 31.7582 5.93734 31.869 5.706C32.0786 5.32904 32.385 4.75762 32.8601 4.7272C33.0584 4.80554 33.2587 4.77144 33.4617 4.77052C33.6415 4.77052 33.7337 4.706 33.798 4.54287C34.0672 3.86637 34.3671 3.20277 34.7107 2.55853C34.8253 2.27282 35.1522 2.03872 35.0647 1.70876C34.9455 1.32259 35.1159 0.939175 35.0684 0.560372C34.9548 0.0516155 35.5527 0.168666 35.8666 0.10415C35.8927 0.0958552 35.9374 0.118897 35.9635 0.140095C36.0371 0.19816 36.1023 0.219358 36.1898 0.157606C36.4944 -0.0092141 36.5018 0.748391 36.4059 0.905073C35.8135 2.20369 35.5499 3.60738 35.0731 4.94287C34.9296 5.34563 34.8002 5.75393 34.6428 6.15209C34.4965 6.49034 34.1547 6.29126 33.8101 6.34379Z" fill="white"/>
<path d="M21.9003 27.6221C20.8721 27.8728 20.7128 27.3355 19.814 27.2701C18.7131 27.1171 17.8785 27.8986 18.0769 26.2323C18.117 25.8784 17.6196 25.6673 17.7789 25.3217C18.605 24.5714 19.3977 25.9733 20.2033 26.1318C20.8553 26.2774 20.9335 27.2562 21.6321 27.2655C21.9888 27.2443 22.7637 27.694 21.9003 27.6221Z" fill="white"/>
<path d="M16.6276 5.86916C16.4683 4.58805 18.1123 3.60003 17.6177 2.27007C17.4845 1.89404 17.9893 2.1051 18.0881 1.6498C18.1877 1.45164 18.1309 1.03966 18.4653 1.11247C18.5826 1.13643 18.7093 1.06638 18.822 1.17514C18.9198 1.26823 19.0288 1.34196 19.0018 1.49864C18.9943 1.54196 19.0111 1.5862 19.0493 1.60924C19.2262 1.71431 19.1974 1.86178 19.1107 1.99357C18.9645 2.21477 18.9077 2.49404 18.672 2.65901C18.6059 2.7051 18.5975 2.79173 18.5649 2.86178C18.1672 3.56777 18.537 4.70141 17.7546 5.15395C17.3029 5.2839 16.9769 5.57423 16.6276 5.87008V5.86916Z" fill="white"/>
<path d="M16.6705 11.0636C16.7208 10.1678 15.7866 11.0793 15.8508 10.6489C15.8853 9.98898 16.3994 10.3411 16.6025 9.92538C16.6574 9.71893 16.3333 9.71432 16.3538 9.52723C16.9266 9.22584 17.9688 9.44428 18.238 8.65718C18.2958 8.4581 19.0465 6.91063 19.2244 7.43598C19.3026 7.80003 19.4507 8.27653 19.1517 8.57607C18.6832 9.14566 18.0089 9.56594 17.6475 10.2093C17.5749 10.3834 17.4594 10.5125 17.2824 10.6102C17.0542 10.7503 17.0048 11.0461 16.8996 11.2738C16.8688 11.3411 16.8111 11.3687 16.7385 11.3623C16.6174 11.353 16.6863 11.1447 16.6705 11.0627V11.0636Z" fill="white"/>
<path d="M28.3754 0C28.6241 0.0341014 30.1153 0.0930877 29.6244 0.57143C29.2901 0.840555 28.925 1.05161 28.4658 1.00922C27.8632 1.0212 27.539 1.60922 26.9737 1.7106C26.4614 1.79355 26.8349 1.07926 26.8442 0.81567C27.0193 0.172351 27.7821 0.0470047 28.3764 0.000921661L28.3754 0Z" fill="white"/>
</svg>
